<svg width="198" height="48" viewBox="0 0 198 48" fill="none" xmlns="http://www.w3.org/2000/svg">
<path d="M36.3068 11.1631C35.8745 10.7309 35.4423 10.2987 35.0101 9.86648C33.7134 8.48337 32.3303 7.10027 30.6015 6.23583C28.6132 5.1985 26.4522 5.45783 24.2911 5.45783C21.0062 5.45783 12.794 5.45783 7.95312 5.45783L11.238 9.86648C17.2026 9.86648 26.5386 9.86648 30.8608 9.86648C32.6761 9.86648 34.2321 10.2123 35.7017 11.1631C35.961 11.2496 36.2203 11.2496 36.3068 11.1631Z" fill="#98A2B3"/>
<path d="M39.9372 18.2516C39.505 17.8194 39.0728 17.3872 38.6406 16.955C37.3439 15.5719 35.9608 14.1888 34.2319 13.3243C32.2437 12.287 30.0826 12.5463 27.9215 12.5463C25.0689 12.5463 18.2398 12.5463 13.3989 12.5463L16.6838 16.955C22.562 16.955 30.6013 16.955 34.5777 16.955C36.393 16.955 37.949 17.3007 39.4186 18.2516C39.5915 18.3381 39.7643 18.3381 39.9372 18.2516Z" fill="#98A2B3"/>
<path d="M44 25.1669C43.5677 24.7347 43.1355 24.3025 42.7033 23.8703C41.4066 22.4872 40.0235 21.104 38.2947 20.2396C36.3065 19.2023 34.1453 19.4616 31.9842 19.4616C29.3045 19.4616 23.4263 19.4616 18.6719 19.4616L21.9567 23.8703C27.662 23.8703 34.9234 23.8703 38.554 23.8703C40.3693 23.8703 41.9253 24.216 43.3949 25.1669C43.6542 25.2534 43.8271 25.3398 44 25.1669Z" fill="#98A2B3"/>
<path d="M7.60693 36.8369C8.03915 37.2691 8.47137 37.7013 8.90359 38.1335C10.2003 39.5166 11.5834 40.8997 13.3122 41.7642C15.3004 42.8015 17.4615 42.5422 19.6226 42.5422H35.9606L32.6757 38.1335C26.7111 38.1335 17.3751 38.1335 13.0529 38.1335C11.2376 38.1335 9.68159 37.7878 8.21204 36.8369C7.95271 36.7504 7.77982 36.7504 7.60693 36.8369Z" fill="#98A2B3"/>
<path d="M3.97656 29.7487C4.40878 30.1809 4.841 30.6131 5.27322 31.0453C6.56988 32.4284 7.95298 33.8116 9.68186 34.676C11.6701 35.7133 13.8312 35.454 15.9923 35.454H30.5149L27.23 31.0453C21.3518 31.0453 13.3125 31.0453 9.33609 31.0453C7.52076 31.0453 5.96477 30.6996 4.49522 29.7487C4.32233 29.6622 4.14945 29.6622 3.97656 29.7487Z" fill="#98A2B3"/>
<path d="M0 22.7465C0.43222 23.1787 0.86444 23.6109 1.29666 24.0431C2.59332 25.4262 3.97643 26.8094 5.70531 27.6738C7.69352 28.7111 9.85461 28.4518 12.0157 28.4518H25.3281L22.0432 24.0431C16.3379 24.0431 9.07662 24.0431 5.44598 24.0431C3.63065 24.0431 2.07465 23.6974 0.605106 22.7465C0.345773 22.66 0.172888 22.66 0 22.7465Z" fill="#98A2B3"/>
<path d="M53.9321 14.008V34H58.3281V25.74H66.7001V22.324H58.3281V17.704H67.9881V14.008H53.9321Z" fill="#98A2B3"/>
<path d="M79.0138 25.208H72.5458C72.5645 24.928 72.6204 24.6107 72.7138 24.256C72.8258 23.9013 73.0031 23.5653 73.2458 23.248C73.5071 22.9307 73.8431 22.6693 74.2538 22.464C74.6831 22.24 75.2151 22.128 75.8498 22.128C76.8205 22.128 77.5391 22.3893 78.0058 22.912C78.4911 23.4347 78.8271 24.2 79.0138 25.208ZM72.5458 27.728H82.9898C83.0645 26.608 82.9711 25.5347 82.7098 24.508C82.4485 23.4813 82.0191 22.5667 81.4218 21.764C80.8431 20.9613 80.0965 20.3267 79.1818 19.86C78.2671 19.3747 77.1938 19.132 75.9618 19.132C74.8605 19.132 73.8525 19.328 72.9378 19.72C72.0418 20.112 71.2671 20.6533 70.6138 21.344C69.9605 22.016 69.4565 22.8187 69.1018 23.752C68.7471 24.6853 68.5698 25.6933 68.5698 26.776C68.5698 27.896 68.7378 28.9227 69.0738 29.856C69.4285 30.7893 69.9231 31.592 70.5578 32.264C71.1925 32.936 71.9671 33.4587 72.8818 33.832C73.7965 34.1867 74.8231 34.364 75.9618 34.364C77.6045 34.364 79.0045 33.9907 80.1618 33.244C81.3191 32.4973 82.1778 31.256 82.7378 29.52H79.2378C79.1071 29.968 78.7525 30.3973 78.1738 30.808C77.5951 31.2 76.9045 31.396 76.1018 31.396C74.9818 31.396 74.1231 31.1067 73.5258 30.528C72.9284 29.9493 72.6018 29.016 72.5458 27.728Z" fill="#98A2B3"/>
<path d="M84.3399 23.976C84.3959 23.0427 84.6292 22.268 85.0399 21.652C85.4506 21.036 85.9732 20.5413 86.6079 20.168C87.2426 19.7947 87.9519 19.5333 88.7359 19.384C89.5386 19.216 90.3412 19.132 91.1439 19.132C91.8719 19.132 92.6092 19.188 93.3559 19.3C94.1026 19.3933 94.7839 19.5893 95.3999 19.888C96.0159 20.1867 96.5199 20.6067 96.9119 21.148C97.3039 21.6707 97.4999 22.3707 97.4999 23.248V30.78C97.4999 31.4333 97.5372 32.0587 97.6119 32.656C97.6866 33.2533 97.8172 33.7013 98.0039 34H93.9719C93.8972 33.776 93.8319 33.552 93.7759 33.328C93.7386 33.0853 93.7106 32.8427 93.6919 32.6C93.0572 33.2533 92.3106 33.7107 91.4519 33.972C90.5932 34.2333 89.7159 34.364 88.8199 34.364C88.1292 34.364 87.4852 34.28 86.8879 34.112C86.2906 33.944 85.7679 33.6827 85.3199 33.328C84.8719 32.9733 84.5172 32.5253 84.2559 31.984C84.0132 31.4427 83.8919 30.7987 83.8919 30.052C83.8919 29.2307 84.0319 28.5587 84.3119 28.036C84.6106 27.4947 84.9839 27.0653 85.4319 26.748C85.8986 26.4307 86.4212 26.1973 86.9999 26.048C87.5972 25.88 88.1946 25.7493 88.7919 25.656C89.3892 25.5627 89.9772 25.488 90.5559 25.432C91.1346 25.376 91.6479 25.292 92.0959 25.18C92.5439 25.068 92.8986 24.9093 93.1599 24.704C93.4212 24.48 93.5426 24.1627 93.5239 23.752C93.5239 23.3227 93.4492 22.9867 93.2999 22.744C93.1692 22.4827 92.9826 22.2867 92.7399 22.156C92.5159 22.0067 92.2452 21.9133 91.9279 21.876C91.6292 21.82 91.3026 21.792 90.9479 21.792C90.1639 21.792 89.5479 21.96 89.0999 22.296C88.6519 22.632 88.3906 23.192 88.3159 23.976H84.3399ZM93.5239 26.916C93.3559 27.0653 93.1412 27.1867 92.8799 27.28C92.6372 27.3547 92.3666 27.42 92.0679 27.476C91.7879 27.532 91.4892 27.5787 91.1719 27.616C90.8546 27.6533 90.5372 27.7 90.2199 27.756C89.9212 27.812 89.6226 27.8867 89.3239 27.98C89.0439 28.0733 88.7919 28.204 88.5679 28.372C88.3626 28.5213 88.1946 28.7173 88.0639 28.96C87.9332 29.2027 87.8679 29.5107 87.8679 29.884C87.8679 30.2387 87.9332 30.5373 88.0639 30.78C88.1946 31.0227 88.3719 31.2187 88.5959 31.368C88.8199 31.4987 89.0812 31.592 89.3799 31.648C89.6786 31.704 89.9866 31.732 90.3039 31.732C91.0879 31.732 91.6946 31.6013 92.1239 31.34C92.5532 31.0787 92.8706 30.7707 93.0759 30.416C93.2812 30.0427 93.4026 29.6693 93.4399 29.296C93.4959 28.9227 93.5239 28.624 93.5239 28.4V26.916Z" fill="#98A2B3"/>
<path d="M104.786 19.524V15.184H100.81V19.524H98.402V22.184H100.81V30.724C100.81 31.452 100.931 32.04 101.174 32.488C101.417 32.936 101.743 33.2813 102.154 33.524C102.583 33.7667 103.069 33.9253 103.61 34C104.17 34.0933 104.758 34.14 105.374 34.14C105.766 34.14 106.167 34.1307 106.578 34.112C106.989 34.0933 107.362 34.056 107.698 34V30.92C107.511 30.9573 107.315 30.9853 107.11 31.004C106.905 31.0227 106.69 31.032 106.466 31.032C105.794 31.032 105.346 30.92 105.122 30.696C104.898 30.472 104.786 30.024 104.786 29.352V22.184H107.698V19.524H104.786Z" fill="#98A2B3"/>
<path d="M108.75 14.008V34H112.726V26.412C112.726 24.9373 112.968 23.8827 113.454 23.248C113.939 22.5947 114.723 22.268 115.806 22.268C116.758 22.268 117.42 22.5667 117.794 23.164C118.167 23.7427 118.354 24.6293 118.354 25.824V34H122.33V25.096C122.33 24.2 122.246 23.388 122.078 22.66C121.928 21.9133 121.658 21.288 121.266 20.784C120.874 20.2613 120.332 19.86 119.642 19.58C118.97 19.2813 118.102 19.132 117.038 19.132C116.291 19.132 115.526 19.328 114.742 19.72C113.958 20.0933 113.314 20.7 112.81 21.54H112.726V14.008H108.75Z" fill="#98A2B3"/>
<path d="M134.251 25.208H127.783C127.802 24.928 127.858 24.6107 127.951 24.256C128.063 23.9013 128.241 23.5653 128.483 23.248C128.745 22.9307 129.081 22.6693 129.491 22.464C129.921 22.24 130.453 22.128 131.087 22.128C132.058 22.128 132.777 22.3893 133.243 22.912C133.729 23.4347 134.065 24.2 134.251 25.208ZM127.783 27.728H138.227C138.302 26.608 138.209 25.5347 137.947 24.508C137.686 23.4813 137.257 22.5667 136.659 21.764C136.081 20.9613 135.334 20.3267 134.419 19.86C133.505 19.3747 132.431 19.132 131.199 19.132C130.098 19.132 129.09 19.328 128.175 19.72C127.279 20.112 126.505 20.6533 125.851 21.344C125.198 22.016 124.694 22.8187 124.339 23.752C123.985 24.6853 123.807 25.6933 123.807 26.776C123.807 27.896 123.975 28.9227 124.311 29.856C124.666 30.7893 125.161 31.592 125.795 32.264C126.43 32.936 127.205 33.4587 128.119 33.832C129.034 34.1867 130.061 34.364 131.199 34.364C132.842 34.364 134.242 33.9907 135.399 33.244C136.557 32.4973 137.415 31.256 137.975 29.52H134.475C134.345 29.968 133.99 30.3973 133.411 30.808C132.833 31.2 132.142 31.396 131.339 31.396C130.219 31.396 129.361 31.1067 128.763 30.528C128.166 29.9493 127.839 29.016 127.783 27.728Z" fill="#98A2B3"/>
<path d="M139.746 19.524V34H143.722V27.476C143.722 26.8227 143.787 26.216 143.918 25.656C144.048 25.096 144.263 24.6107 144.562 24.2C144.879 23.7707 145.29 23.4347 145.794 23.192C146.298 22.9493 146.914 22.828 147.642 22.828C147.884 22.828 148.136 22.8467 148.398 22.884C148.659 22.9027 148.883 22.9307 149.07 22.968V19.272C148.752 19.1787 148.463 19.132 148.202 19.132C147.698 19.132 147.212 19.2067 146.746 19.356C146.279 19.5053 145.84 19.72 145.43 20C145.019 20.2613 144.655 20.588 144.338 20.98C144.02 21.3533 143.768 21.764 143.582 22.212H143.526V19.524H139.746Z" fill="#98A2B3"/>
<path d="M154.604 30.304V17.704H157.74C158.823 17.704 159.728 17.8627 160.456 18.18C161.203 18.4787 161.8 18.9173 162.248 19.496C162.696 20.0747 163.014 20.7747 163.2 21.596C163.406 22.3987 163.508 23.304 163.508 24.312C163.508 25.4133 163.368 26.3467 163.088 27.112C162.808 27.8773 162.435 28.5027 161.968 28.988C161.502 29.4547 160.97 29.7907 160.372 29.996C159.775 30.2013 159.159 30.304 158.524 30.304H154.604ZM150.208 14.008V34H158.832C160.363 34 161.688 33.748 162.808 33.244C163.947 32.7213 164.89 32.012 165.636 31.116C166.402 30.22 166.971 29.156 167.344 27.924C167.718 26.692 167.904 25.348 167.904 23.892C167.904 22.2307 167.671 20.784 167.204 19.552C166.756 18.32 166.122 17.2933 165.3 16.472C164.498 15.6507 163.536 15.0347 162.416 14.624C161.315 14.2133 160.12 14.008 158.832 14.008H150.208Z" fill="#98A2B3"/>
<path d="M179.446 25.208H172.978C172.997 24.928 173.053 24.6107 173.146 24.256C173.258 23.9013 173.436 23.5653 173.678 23.248C173.94 22.9307 174.276 22.6693 174.686 22.464C175.116 22.24 175.648 22.128 176.282 22.128C177.253 22.128 177.972 22.3893 178.438 22.912C178.924 23.4347 179.26 24.2 179.446 25.208ZM172.978 27.728H183.422C183.497 26.608 183.404 25.5347 183.142 24.508C182.881 23.4813 182.452 22.5667 181.854 21.764C181.276 20.9613 180.529 20.3267 179.614 19.86C178.7 19.3747 177.626 19.132 176.394 19.132C175.293 19.132 174.285 19.328 173.37 19.72C172.474 20.112 171.7 20.6533 171.046 21.344C170.393 22.016 169.889 22.8187 169.534 23.752C169.18 24.6853 169.002 25.6933 169.002 26.776C169.002 27.896 169.17 28.9227 169.506 29.856C169.861 30.7893 170.356 31.592 170.99 32.264C171.625 32.936 172.4 33.4587 173.314 33.832C174.229 34.1867 175.256 34.364 176.394 34.364C178.037 34.364 179.437 33.9907 180.594 33.244C181.752 32.4973 182.61 31.256 183.17 29.52H179.67C179.54 29.968 179.185 30.3973 178.606 30.808C178.028 31.2 177.337 31.396 176.534 31.396C175.414 31.396 174.556 31.1067 173.958 30.528C173.361 29.9493 173.034 29.016 172.978 27.728Z" fill="#98A2B3"/>
<path d="M192.948 34L197.848 19.524H193.9L190.848 29.408H190.792L187.74 19.524H183.568L188.524 34H192.948Z" fill="#98A2B3"/>
</svg>
