<svg width="197" height="48" viewBox="0 0 197 48" fill="none" xmlns="http://www.w3.org/2000/svg">
<path d="M30.4289 2H13.5711L0 15.5711V32.4289L13.5711 46H30.4289L44 32.4289V15.5711L30.4289 2ZM15.9036 32.641L7.20966 23.947L15.9036 15.253C19.1904 11.9663 24.5976 11.9663 27.8844 15.253L36.5783 23.947L27.8844 32.641C24.5976 35.9277 19.2964 35.9277 15.9036 32.641Z" fill="#98A2B3"/>
<path d="M63.34 34.24C66.04 34.24 68.26 32.86 68.95 30.79V34H72.94V25.9C72.94 24.07 71.5 22.51 69.55 22.51H63.85V25.9H67.9C68.41 25.9 68.74 26.23 68.74 26.74C68.74 28.69 66.16 30.58 63.55 30.58C60.07 30.58 57.31 27.85 57.31 23.5C57.31 19.15 60.07 16.63 63.64 16.63C66.34 16.63 68.2 18.1 68.53 20.35H73C72.73 15.85 68.95 12.76 63.67 12.76C58.12 12.76 53.02 16.33 53.02 23.5C53.02 30.67 57.97 34.24 63.34 34.24Z" fill="#98A2B3"/>
<path d="M74.6528 34H78.8228V12.31H74.6528V34Z" fill="#98A2B3"/>
<path d="M87.8179 34.24C92.4679 34.24 95.7979 30.94 95.7979 26.44C95.7979 21.94 92.4679 18.64 87.8179 18.64C83.1679 18.64 79.8379 21.94 79.8379 26.44C79.8379 30.94 83.1679 34.24 87.8179 34.24ZM87.8179 30.64C85.5679 30.64 84.0379 28.93 84.0379 26.44C84.0379 23.92 85.5679 22.21 87.8179 22.21C90.0679 22.21 91.5979 23.92 91.5979 26.44C91.5979 28.93 90.0679 30.64 87.8179 30.64Z" fill="#98A2B3"/>
<path d="M105.129 34.24C109.599 34.24 112.269 31.15 112.269 26.44C112.269 21.73 109.599 18.64 105.189 18.64C103.299 18.64 101.829 19.36 100.989 20.47V12.31H96.8188V34H100.989V32.35C101.829 33.52 103.389 34.24 105.129 34.24ZM104.469 30.64C102.219 30.64 100.749 28.96 100.749 26.44C100.749 23.89 102.219 22.21 104.469 22.21C106.659 22.21 108.159 23.89 108.159 26.44C108.159 28.96 106.659 30.64 104.469 30.64Z" fill="#98A2B3"/>
<path d="M119.249 18.64C115.109 18.64 112.649 21.07 112.469 24.1H116.189C116.249 22.84 117.179 21.7 119.009 21.7C120.719 21.7 121.709 22.57 121.709 23.83C121.709 24.46 121.319 24.94 120.569 24.94H118.019C114.719 24.94 112.499 26.74 112.499 29.71C112.499 32.29 114.509 34.24 117.449 34.24C119.519 34.24 121.199 33.31 121.709 31.9V34H125.849V24.28C125.849 20.86 123.059 18.64 119.249 18.64ZM118.499 31.21C117.329 31.21 116.489 30.52 116.489 29.53C116.489 28.36 117.389 27.58 118.649 27.58H121.709V27.79C121.709 29.71 120.539 31.21 118.499 31.21Z" fill="#98A2B3"/>
<path d="M127.452 34H131.622V12.31H127.452V34Z" fill="#98A2B3"/>
<path d="M133.837 34H142.417C146.857 34 149.917 31.72 149.917 27.73C149.917 24.97 148.297 23.29 146.377 22.54C147.607 21.88 148.837 20.38 148.837 18.4C148.837 14.89 145.987 13 142.177 13H133.837V34ZM138.277 21.01V16.57H141.757C143.767 16.57 144.667 17.38 144.667 18.79C144.667 20.2 143.767 21.01 141.847 21.01H138.277ZM138.277 30.1V24.82H142.027C144.517 24.82 145.627 25.78 145.627 27.49C145.627 29.2 144.517 30.1 142.027 30.1H138.277Z" fill="#98A2B3"/>
<path d="M157.171 18.64C153.031 18.64 150.571 21.07 150.391 24.1H154.111C154.171 22.84 155.101 21.7 156.931 21.7C158.641 21.7 159.631 22.57 159.631 23.83C159.631 24.46 159.241 24.94 158.491 24.94H155.941C152.641 24.94 150.421 26.74 150.421 29.71C150.421 32.29 152.431 34.24 155.371 34.24C157.441 34.24 159.121 33.31 159.631 31.9V34H163.771V24.28C163.771 20.86 160.981 18.64 157.171 18.64ZM156.421 31.21C155.251 31.21 154.411 30.52 154.411 29.53C154.411 28.36 155.311 27.58 156.571 27.58H159.631V27.79C159.631 29.71 158.461 31.21 156.421 31.21Z" fill="#98A2B3"/>
<path d="M165.134 34H169.334V25.72C169.334 23.77 170.624 22.36 172.454 22.36C174.194 22.36 175.364 23.68 175.364 25.51V34H179.564V24.58C179.564 21.1 177.344 18.64 173.924 18.64C171.854 18.64 170.174 19.51 169.334 20.98V18.88H165.134V34Z" fill="#98A2B3"/>
<path d="M191.534 34H196.574L190.064 24.82L196.094 18.88H190.814L185.564 24.04V12.31H181.364V34H185.564V29.26L187.244 27.61L191.534 34Z" fill="#98A2B3"/>
</svg>
