<svg width="64" height="64" viewBox="0 0 64 64" fill="none" xmlns="http://www.w3.org/2000/svg">
<path d="M0 32C0 14.3269 14.3269 0 32 0C49.6731 0 64 14.3269 64 32C64 49.6731 49.6731 64 32 64C14.3269 64 0 49.6731 0 32Z" fill="#2A89F6"/>
<path d="M43.6736 32.0672C43.6447 32.2182 43.6766 32.3746 43.7625 32.5022C43.8483 32.6298 43.9812 32.7182 44.132 32.7482C44.2828 32.7782 44.4394 32.7473 44.5676 32.6623C44.6957 32.5773 44.785 32.445 44.816 32.2944L46.352 24.416C46.4123 24.1235 46.4134 23.8218 46.3553 23.5288C46.2973 23.2358 46.1812 22.9573 46.0139 22.7099C45.8466 22.4624 45.6316 22.2509 45.3813 22.0877C45.1311 21.9246 44.8508 21.8132 44.5568 21.76L36.912 20.256L36.7488 19.4048C36.6178 18.808 36.2556 18.2874 35.7417 17.957C35.2277 17.6265 34.6038 17.5131 34.0064 17.6416L22.6048 19.872C22.5319 19.8818 22.4619 19.9075 22.4 19.9473C22.3381 19.9872 22.2856 20.0401 22.2464 20.1024L17.7728 26.56C17.702 26.6285 17.6492 26.7134 17.619 26.8072C17.5889 26.9009 17.5824 27.0007 17.6 27.0976L21.0048 44.3584C21.131 44.9605 21.4911 45.4879 22.0059 45.8245C22.5208 46.1612 23.1483 46.2795 23.7504 46.1536L33.3856 44.2912C33.4585 44.2761 33.5278 44.2467 33.5893 44.2049C33.6509 44.163 33.7036 44.1094 33.7445 44.0471C33.7853 43.9849 33.8135 43.9152 33.8275 43.8421C33.8414 43.7689 33.8408 43.6937 33.8256 43.6208C33.8105 43.5479 33.7812 43.4787 33.7393 43.4171C33.6974 43.3556 33.6438 43.3028 33.5816 43.262C33.5193 43.2211 33.4496 43.1929 33.3765 43.179C33.3033 43.1651 33.2281 43.1657 33.1552 43.1808L23.52 45.0432C23.3698 45.074 23.2149 45.0746 23.0643 45.0452C22.9138 45.0157 22.7706 44.9568 22.6429 44.8717C22.5153 44.7866 22.4058 44.6771 22.3207 44.5494C22.2356 44.4218 22.1767 44.2786 22.1472 44.128L18.848 27.424L22.0192 26.8032C22.6197 26.6825 23.1483 26.3299 23.4904 25.8218C23.8324 25.3138 23.9604 24.6914 23.8464 24.0896L23.2256 20.9184L34.24 18.7616C34.3883 18.7278 34.5417 18.724 34.6915 18.7502C34.8412 18.7765 34.9842 18.8324 35.1121 18.9147C35.2399 18.997 35.3501 19.1039 35.4361 19.2293C35.522 19.3546 35.5821 19.4959 35.6128 19.6448C36.496 24.1248 37.376 28.6336 38.2592 33.1136C36.9243 33.3095 35.6436 33.7767 34.496 34.4864C33.2544 35.4656 32.6016 36.6112 33.0592 38.2432C33.8248 40.899 35.2 43.3392 37.0752 45.3696C37.3914 45.6952 37.7697 45.9541 38.1877 46.1309C38.6057 46.3076 39.055 46.3987 39.5088 46.3987C39.9627 46.3987 40.4119 46.3076 40.83 46.1309C41.248 45.9541 41.6263 45.6952 41.9424 45.3696C43.8493 43.3443 45.2391 40.8887 45.9936 38.2112C46.184 37.515 46.1438 36.7759 45.8791 36.1044C45.6143 35.4329 45.1392 34.8653 44.5248 34.4864C42.9972 33.5128 41.2161 33.0119 39.4048 33.0464L39.0464 31.1264L39.6864 31.2576C40.4384 31.3888 40.6656 30.2784 39.9136 30.1472L38.7712 29.8848L38.2496 27.0752L41.2224 27.6288C41.9712 27.76 42.1344 26.6496 41.4176 26.4864L37.9904 25.856L37.1424 21.4752L44.3264 22.88C44.4698 22.9034 44.6069 22.9554 44.7296 23.0331C44.8524 23.1108 44.9581 23.2124 45.0406 23.3319C45.1231 23.4515 45.1806 23.5864 45.2096 23.7287C45.2387 23.871 45.2387 24.0177 45.2096 24.16L43.6736 32.0672ZM23.424 36.0224C22.704 36.1536 22.9312 37.3024 23.6512 37.1328L31.1296 35.6288C31.2769 35.5987 31.4061 35.5113 31.489 35.3859C31.5718 35.2605 31.6014 35.1073 31.5712 34.96C31.5411 34.8128 31.4537 34.6835 31.3283 34.6007C31.2029 34.5179 31.0497 34.4883 30.9024 34.5184L23.424 36.0224ZM34.9856 30.4L22.768 32.8832C22.0512 33.0144 22.2784 34.1248 22.9984 33.9936L35.2 31.5104C35.2765 31.5002 35.3501 31.4745 35.4162 31.4348C35.4824 31.3951 35.5397 31.3424 35.5848 31.2798C35.6298 31.2171 35.6616 31.146 35.6781 31.0706C35.6947 30.9953 35.6957 30.9174 35.6811 30.8416C35.6665 30.7659 35.6365 30.6939 35.5931 30.6302C35.5497 30.5664 35.4937 30.5122 35.4286 30.4709C35.3635 30.4295 35.2906 30.4019 35.2144 30.3897C35.1383 30.3775 35.0604 30.381 34.9856 30.4ZM34.3456 27.2288L22.1472 29.712C21.4304 29.8432 21.6576 30.9536 22.3776 30.8224L34.56 28.3392C34.6329 28.3243 34.7022 28.2952 34.7639 28.2535C34.8255 28.2118 34.8783 28.1584 34.9194 28.0963C34.9604 28.0342 34.9887 27.9646 35.0028 27.8915C35.017 27.8185 35.0166 27.7433 35.0016 27.6704C34.9867 27.5975 34.9576 27.5283 34.9159 27.4666C34.8742 27.405 34.8208 27.3521 34.7587 27.3111C34.6966 27.2701 34.627 27.2417 34.554 27.2276C34.4809 27.2135 34.4057 27.2139 34.3328 27.2288H34.3456ZM38.1664 40.9248C38.2684 41.0295 38.3903 41.1127 38.525 41.1695C38.6596 41.2264 38.8043 41.2556 38.9504 41.2556C39.0966 41.2556 39.2413 41.2264 39.3759 41.1695C39.5106 41.1127 39.6325 41.0295 39.7344 40.9248L42.464 38.112C42.9888 37.5904 42.1728 36.7744 41.648 37.296L38.9696 40.1088L37.6896 38.8288C37.168 38.3072 36.352 39.1232 36.8736 39.648L38.1664 40.9248ZM21.7888 25.6928L19.4688 26.1152L22.2784 22.08L22.736 24.32C22.7858 24.6287 22.7134 24.9447 22.5342 25.2009C22.355 25.4572 22.0831 25.6336 21.776 25.6928H21.7888ZM43.904 35.4336C44.3199 35.68 44.6418 36.0578 44.8191 36.5074C44.9964 36.9571 45.019 37.4529 44.8832 37.9168C44.1807 40.4075 42.8926 42.6941 41.1264 44.5856C40.6914 45.0032 40.1118 45.2363 39.5088 45.2363C38.9059 45.2363 38.3263 45.0032 37.8912 44.5856C36.1367 42.6912 34.8607 40.4047 34.1696 37.9168C34.0255 37.4601 34.0422 36.9677 34.2168 36.5217C34.3915 36.0757 34.7136 35.703 35.1296 35.4656C36.4409 34.6284 37.9629 34.1809 39.5186 34.1753C41.0743 34.1696 42.5996 34.606 43.9168 35.4336H43.904Z" fill="white"/>
</svg>
