<svg width="64" height="64" viewBox="0 0 64 64" fill="none" xmlns="http://www.w3.org/2000/svg">
<path d="M0 32C0 14.3269 14.3269 0 32 0C49.6731 0 64 14.3269 64 32C64 49.6731 49.6731 64 32 64C14.3269 64 0 49.6731 0 32Z" fill="#2A89F6"/>
<path d="M16.58 45.235C16.5261 45.3182 16.4986 45.4157 16.5013 45.5148C16.504 45.6139 16.5367 45.7099 16.595 45.79C16.69 45.925 16.845 46.005 17.005 46.005C17.04 46.005 17.075 46.005 17.115 45.995L21.71 44.975C23.035 45.65 24.52 46.005 26.01 46.005C31.195 46.005 35.42 41.825 35.5 36.655C37.75 37.265 40.215 37.035 42.305 35.975L46.9 36.99C46.935 37 46.97 37 47.01 37C47.17 37 47.325 36.92 47.42 36.785C47.535 36.62 47.54 36.4 47.435 36.23L45.56 33.265C46.8253 31.6076 47.5105 29.5802 47.51 27.495C47.51 22.255 43.25 17.995 38.01 17.995C32.77 17.995 28.6 22.175 28.52 27.34C27.72 27.12 26.88 26.995 26.01 26.995C20.76 27 16.5 31.26 16.5 36.5C16.5 38.585 17.19 40.62 18.455 42.27L16.58 45.235ZM38 19C42.685 19 46.5 22.815 46.5 27.5C46.5 29.475 45.81 31.4 44.55 32.915C44.41 33.08 44.395 33.32 44.51 33.5L45.935 35.75L42.335 34.955C42.22 34.93 42.095 34.945 41.99 35C39.995 36.06 37.59 36.265 35.45 35.595C35.11 31.99 32.74 28.965 29.5 27.675C29.5 27.615 29.495 27.555 29.495 27.495C29.495 22.81 33.31 18.995 37.995 18.995L38 19ZM17.5 36.5C17.5 31.815 21.315 28 26 28C30.685 28 34.5 31.815 34.5 36.5C34.5 41.185 30.685 45 26 45C24.61 45 23.23 44.655 22.005 44C21.9328 43.9609 21.8521 43.9403 21.77 43.94C21.735 43.94 21.7 43.94 21.66 43.95L18.06 44.745L19.485 42.495C19.6 42.31 19.585 42.075 19.45 41.91C18.19 40.39 17.5 38.465 17.5 36.49V36.5Z" fill="white"/>
<path d="M34 24H42V25H34V24ZM34 27H42V28H34V27ZM36 30H42V31H36V30ZM22.83 37.5H24.64L25.165 39.5H26.2L24.72 33.875C24.66 33.655 24.465 33.5 24.235 33.5H23.235C23.01 33.5 22.81 33.655 22.75 33.875L21.27 39.5H22.305L22.83 37.5ZM23.62 34.5H23.85L24.375 36.5H23.095L23.62 34.5ZM30.73 38.5H29.48V34.5H30.73V33.5H27.23V34.5H28.48V38.5H27.23V39.5H30.73V38.5Z" fill="white"/>
</svg>
