<svg width="64" height="64" viewBox="0 0 64 64" fill="none" xmlns="http://www.w3.org/2000/svg">
<path d="M0 32C0 14.3269 14.3269 0 32 0C49.6731 0 64 14.3269 64 32C64 49.6731 49.6731 64 32 64C14.3269 64 0 49.6731 0 32Z" fill="#2A89F6"/>
<g clip-path="url(#clip0_6_2388)">
<path d="M46.8433 29.2255C46.495 29.0354 46.1011 28.945 45.7047 28.9642C45.3084 28.9834 44.925 29.1116 44.5968 29.3345L37.3468 34.168C37.1758 33.6816 36.8583 33.2601 36.4381 32.9615C36.0178 32.6628 35.5154 32.5016 34.9998 32.5H24.4998C24.3672 32.5 24.24 32.5527 24.1463 32.6465L20.9998 35.793L20.3533 35.1465C20.2595 35.0528 20.1324 35.0001 19.9998 35.0001C19.8672 35.0001 19.7401 35.0528 19.6463 35.1465L17.1463 37.6465C17.0526 37.7403 16.9999 37.8674 16.9999 38C16.9999 38.1326 17.0526 38.2597 17.1463 38.3535L17.7928 39L16.1463 40.6465C16.0985 40.6926 16.0605 40.7478 16.0342 40.8088C16.008 40.8698 15.9942 40.9354 15.9937 41.0018C15.9931 41.0682 16.0057 41.134 16.0309 41.1955C16.056 41.2569 16.0932 41.3128 16.1401 41.3597C16.187 41.4066 16.2429 41.4438 16.3043 41.4689C16.3658 41.4941 16.4316 41.5067 16.498 41.5061C16.5644 41.5055 16.63 41.4918 16.691 41.4656C16.752 41.4393 16.8072 41.4013 16.8533 41.3535L18.4998 39.707L24.2928 45.5L22.6463 47.1465C22.5985 47.1926 22.5605 47.2478 22.5342 47.3088C22.508 47.3698 22.4942 47.4354 22.4937 47.5018C22.4931 47.5682 22.5057 47.634 22.5309 47.6955C22.556 47.7569 22.5932 47.8128 22.6401 47.8597C22.687 47.9066 22.7429 47.9438 22.8043 47.9689C22.8658 47.9941 22.9316 48.0067 22.998 48.0061C23.0644 48.0056 23.13 47.9918 23.191 47.9656C23.252 47.9393 23.3072 47.9013 23.3533 47.8535L24.9998 46.207L25.6463 46.8535C25.7401 46.9472 25.8672 46.9999 25.9998 46.9999C26.1324 46.9999 26.2595 46.9472 26.3533 46.8535L28.8533 44.3535C28.947 44.2597 28.9997 44.1326 28.9997 44C28.9997 43.8674 28.947 43.7403 28.8533 43.6465L28.2068 43L29.7068 41.5H35.4998C35.608 41.5001 35.7133 41.465 35.7998 41.4L47.1248 32.9065C47.3959 32.702 47.616 32.4375 47.7678 32.1337C47.9196 31.8299 47.999 31.4951 47.9998 31.1555C48.0032 30.7585 47.8971 30.3683 47.6931 30.0278C47.489 29.6873 47.195 29.4097 46.8433 29.2255ZM25.9998 45.793L18.2068 38L19.9998 36.207L27.7928 44L25.9998 45.793ZM46.5248 32.1065L35.3333 40.5H29.4998C29.3672 40.5 29.24 40.5527 29.1463 40.6465L27.4998 42.293L21.7068 36.5L24.7068 33.5H34.9998C35.3976 33.5 35.7792 33.658 36.0605 33.9393C36.3418 34.2206 36.4998 34.6022 36.4998 35C36.4998 35.3978 36.3418 35.7794 36.0605 36.0607C35.7792 36.342 35.3976 36.5 34.9998 36.5H28.4998C28.3672 36.5 28.24 36.5527 28.1462 36.6464C28.0525 36.7402 27.9998 36.8674 27.9998 37C27.9998 37.1326 28.0525 37.2598 28.1462 37.3536C28.24 37.4473 28.3672 37.5 28.4998 37.5H34.9998C35.6113 37.498 36.2008 37.2716 36.6563 36.8636C37.1118 36.4556 37.4017 35.8946 37.4708 35.287L45.1518 30.1665C45.3308 30.0471 45.5388 29.9785 45.7538 29.9681C45.9687 29.9577 46.1824 30.0058 46.3721 30.1074C46.5618 30.2089 46.7204 30.36 46.8309 30.5446C46.9415 30.7292 46.9998 30.9403 46.9998 31.1555C46.9993 31.3399 46.9562 31.5217 46.8738 31.6867C46.7914 31.8517 46.672 31.9954 46.5248 32.1065ZM26.5698 31.5C26.6553 31.5 26.7393 31.478 26.8139 31.4362C26.8885 31.3944 26.9511 31.3342 26.9958 31.2614C27.0405 31.1885 27.0657 31.1054 27.0691 31.02C27.0726 30.9346 27.054 30.8497 27.0153 30.7735C26.3425 29.4497 25.9944 27.9849 25.9998 26.5C25.9998 23.9804 27.0007 21.5641 28.7823 19.7825C30.5639 18.0009 32.9802 17 35.4998 17C38.0194 17 40.4357 18.0009 42.2173 19.7825C43.9989 21.5641 44.9998 23.9804 44.9998 26.5C45.0008 26.8113 44.9851 27.1224 44.9528 27.432C44.9387 27.5639 44.9776 27.6959 45.061 27.7991C45.1443 27.9023 45.2652 27.9682 45.397 27.9823C45.4623 27.9892 45.5284 27.9832 45.5914 27.9647C45.6544 27.9461 45.7131 27.9153 45.7642 27.8741C45.8674 27.7908 45.9332 27.6699 45.9473 27.538C45.9834 27.1932 46.001 26.8467 45.9998 26.5C45.9998 23.7152 44.8935 21.0445 42.9244 19.0754C40.9553 17.1062 38.2846 16 35.4998 16C32.715 16 30.0443 17.1062 28.0752 19.0754C26.106 21.0445 24.9998 23.7152 24.9998 26.5C24.994 28.1424 25.3792 29.7626 26.1238 31.2265C26.1656 31.309 26.2295 31.3782 26.3083 31.4265C26.3871 31.4748 26.4778 31.5003 26.5703 31.5H26.5698Z" fill="white"/>
<path d="M43.1515 28.901C43.2804 28.9323 43.4165 28.9113 43.5298 28.8423C43.6432 28.7734 43.7245 28.6623 43.756 28.5335C44.0432 27.3657 44.0794 26.1504 43.8622 24.9676C43.6449 23.7848 43.1792 22.6616 42.4958 21.6721C41.8124 20.6827 40.9269 19.8494 39.8976 19.2275C38.8684 18.6055 37.719 18.209 36.5252 18.0641C35.3314 17.9193 34.1204 18.0293 32.9723 18.387C31.8242 18.7447 30.7651 19.3419 29.8648 20.1392C28.9646 20.9365 28.2437 21.9157 27.7499 23.0122C27.2561 24.1087 27.0005 25.2974 27 26.5C26.998 28.2043 27.5088 29.8698 28.466 31.28C28.5019 31.3364 28.5487 31.3851 28.6037 31.4231C28.6587 31.4611 28.7208 31.4877 28.7862 31.5014C28.8517 31.515 28.9192 31.5153 28.9848 31.5024C29.0504 31.4894 29.1127 31.4634 29.1681 31.426C29.2235 31.3885 29.2708 31.3403 29.3073 31.2843C29.3437 31.2282 29.3685 31.1654 29.3802 31.0996C29.392 31.0338 29.3904 30.9663 29.3756 30.9011C29.3608 30.8359 29.333 30.7743 29.294 30.72C28.634 29.7492 28.211 28.6371 28.0591 27.473C27.9072 26.309 28.0305 25.1256 28.4193 24.0179C28.808 22.9102 29.4512 21.9092 30.2973 21.0954C31.1433 20.2816 32.1685 19.6777 33.2905 19.3323C34.4124 18.9868 35.5997 18.9095 36.757 19.1065C37.9142 19.3035 39.0091 19.7694 39.9535 20.4665C40.898 21.1637 41.6656 22.0728 42.1947 23.1207C42.7239 24.1686 42.9997 25.3261 43 26.5C42.9998 27.1053 42.9273 27.7084 42.784 28.2965C42.7684 28.3603 42.7655 28.4266 42.7756 28.4915C42.7856 28.5564 42.8083 28.6188 42.8425 28.6749C42.8766 28.731 42.9215 28.7799 42.9745 28.8187C43.0275 28.8575 43.0877 28.8855 43.1515 28.901Z" fill="white"/>
<path d="M35.5 21.5C35.6326 21.5 35.7598 21.4473 35.8536 21.3536C35.9473 21.2598 36 21.1326 36 21V20.5C36 20.3674 35.9473 20.2402 35.8536 20.1464C35.7598 20.0527 35.6326 20 35.5 20C35.3674 20 35.2402 20.0527 35.1464 20.1464C35.0527 20.2402 35 20.3674 35 20.5V21C35 21.1326 35.0527 21.2598 35.1464 21.3536C35.2402 21.4473 35.3674 21.5 35.5 21.5ZM32.25 20.871C32.1352 20.9373 32.0514 21.0465 32.017 21.1746C31.9827 21.3027 32.0007 21.4392 32.067 21.554L32.317 21.987C32.3838 22.1009 32.4929 22.1838 32.6205 22.2175C32.7482 22.2513 32.884 22.2332 32.9983 22.1671C33.1127 22.1011 33.1963 21.9926 33.2309 21.8651C33.2655 21.7377 33.2483 21.6018 33.183 21.487L32.933 21.054C32.8667 20.9392 32.7575 20.8554 32.6294 20.8211C32.5013 20.7867 32.3648 20.8047 32.25 20.871ZM30.987 23.317L30.5535 23.067C30.4966 23.0337 30.4337 23.0119 30.3684 23.003C30.303 22.994 30.2366 22.9981 30.1728 23.015C30.1091 23.0318 30.0493 23.0611 29.9969 23.1012C29.9445 23.1412 29.9006 23.1912 29.8676 23.2483C29.8346 23.3054 29.8133 23.3685 29.8048 23.4339C29.7963 23.4993 29.8008 23.5657 29.8181 23.6293C29.8354 23.693 29.8651 23.7526 29.9055 23.8047C29.9459 23.8568 29.9962 23.9004 30.0535 23.933L30.487 24.183C30.5439 24.2163 30.6068 24.2381 30.6721 24.247C30.7375 24.256 30.8039 24.2519 30.8677 24.235C30.9314 24.2182 30.9912 24.1889 31.0436 24.1488C31.096 24.1088 31.1399 24.0588 31.1729 24.0017C31.2059 23.9446 31.2272 23.8815 31.2357 23.8161C31.2442 23.7507 31.2397 23.6843 31.2224 23.6207C31.2051 23.557 31.1754 23.4974 31.135 23.4453C31.0946 23.3932 31.0443 23.3496 30.987 23.317ZM30.5 26.5C30.5 26.3674 30.4473 26.2402 30.3536 26.1464C30.2598 26.0527 30.1326 26 30 26H29.5C29.3674 26 29.2402 26.0527 29.1464 26.1464C29.0527 26.2402 29 26.3674 29 26.5C29 26.6326 29.0527 26.7598 29.1464 26.8536C29.2402 26.9473 29.3674 27 29.5 27H30C30.1326 27 30.2598 26.9473 30.3536 26.8536C30.4473 26.7598 30.5 26.6326 30.5 26.5ZM30.304 30C30.3918 30.0001 30.478 29.977 30.554 29.933L30.987 29.683C31.0443 29.6504 31.0946 29.6068 31.135 29.5547C31.1754 29.5026 31.2051 29.443 31.2224 29.3793C31.2397 29.3157 31.2442 29.2493 31.2357 29.1839C31.2272 29.1185 31.2059 29.0554 31.1729 28.9983C31.1399 28.9412 31.096 28.8912 31.0436 28.8512C30.9912 28.8111 30.9314 28.7818 30.8677 28.7649C30.8039 28.7481 30.7375 28.744 30.6721 28.7529C30.6068 28.7619 30.5439 28.7837 30.487 28.817L30.0535 29.067C29.9581 29.1221 29.8836 29.207 29.8415 29.3088C29.7994 29.4105 29.7921 29.5233 29.8206 29.6297C29.8492 29.736 29.912 29.8299 29.9994 29.8969C30.0868 29.9639 30.1939 30.0001 30.304 30ZM38.067 31.946C38.1109 32.0221 38.1741 32.0852 38.2502 32.1291C38.3263 32.173 38.4126 32.1961 38.5005 32.196C38.5882 32.1959 38.6744 32.1727 38.7503 32.1288C38.8263 32.0849 38.8893 32.0218 38.9331 31.9458C38.977 31.8698 39 31.7836 39 31.6959C39 31.6081 38.9769 31.522 38.933 31.446L38.683 31.013C38.6162 30.8991 38.5071 30.8162 38.3795 30.7825C38.2518 30.7487 38.116 30.7668 38.0017 30.8329C37.8873 30.8989 37.8037 31.0074 37.7691 31.1349C37.7345 31.2623 37.7517 31.3982 37.817 31.513L38.067 31.946ZM40.013 29.683L40.4465 29.933C40.5613 29.9983 40.6972 30.0155 40.8246 29.9809C40.9521 29.9463 41.0606 29.8627 41.1266 29.7483C41.1927 29.634 41.2108 29.4982 41.177 29.3705C41.1433 29.2429 41.0604 29.1338 40.9465 29.067L40.513 28.817C40.4561 28.7837 40.3932 28.7619 40.3279 28.7529C40.2625 28.744 40.1961 28.7481 40.1323 28.7649C40.0686 28.7818 40.0088 28.8111 39.9564 28.8512C39.904 28.8912 39.8601 28.9412 39.8271 28.9983C39.7941 29.0554 39.7728 29.1185 39.7643 29.1839C39.7558 29.2493 39.7603 29.3157 39.7776 29.3793C39.7949 29.443 39.8246 29.5026 39.865 29.5547C39.9054 29.6068 39.9557 29.6504 40.013 29.683ZM42 26.5C42 26.3674 41.9473 26.2402 41.8536 26.1464C41.7598 26.0527 41.6326 26 41.5 26H41C40.8674 26 40.7402 26.0527 40.6464 26.1464C40.5527 26.2402 40.5 26.3674 40.5 26.5C40.5 26.6326 40.5527 26.7598 40.6464 26.8536C40.7402 26.9473 40.8674 27 41 27H41.5C41.6326 27 41.7598 26.9473 41.8536 26.8536C41.9473 26.7598 42 26.6326 42 26.5ZM40.2635 24.25C40.3513 24.2501 40.4375 24.227 40.5135 24.183L40.9465 23.933C41.0038 23.9004 41.0541 23.8568 41.0945 23.8047C41.1349 23.7526 41.1646 23.693 41.1819 23.6293C41.1992 23.5657 41.2037 23.4993 41.1952 23.4339C41.1867 23.3685 41.1654 23.3054 41.1324 23.2483C41.0994 23.1912 41.0555 23.1412 41.0031 23.1012C40.9507 23.0611 40.8909 23.0318 40.8272 23.015C40.7634 22.9981 40.697 22.994 40.6316 23.003C40.5663 23.0119 40.5034 23.0337 40.4465 23.067L40.013 23.317C39.9176 23.3721 39.8431 23.457 39.801 23.5588C39.7589 23.6605 39.7516 23.7733 39.7801 23.8797C39.8087 23.986 39.8715 24.0799 39.9589 24.1469C40.0463 24.2139 40.1534 24.2501 40.2635 24.25ZM38.75 20.871C38.6932 20.8381 38.6304 20.8167 38.5653 20.8081C38.5002 20.7995 38.434 20.8039 38.3705 20.8208C38.3071 20.8378 38.2476 20.8672 38.1956 20.9072C38.1435 20.9472 38.0998 20.9971 38.067 21.054L37.817 21.487C37.7517 21.6018 37.7345 21.7377 37.7691 21.8651C37.8037 21.9926 37.8873 22.1011 38.0017 22.1671C38.116 22.2332 38.2518 22.2513 38.3795 22.2175C38.5071 22.1838 38.6162 22.1009 38.683 21.987L38.933 21.554C38.9993 21.4392 39.0173 21.3027 38.983 21.1746C38.9486 21.0465 38.8648 20.9373 38.75 20.871ZM35 26.5C35 26.6326 35.0527 26.7598 35.1464 26.8536C35.2402 26.9473 35.3674 27 35.5 27H38C38.1326 27 38.2598 26.9473 38.3536 26.8536C38.4473 26.7598 38.5 26.6326 38.5 26.5C38.5 26.3674 38.4473 26.2402 38.3536 26.1464C38.2598 26.0527 38.1326 26 38 26H36V23C36 22.8674 35.9473 22.7402 35.8536 22.6464C35.7598 22.5527 35.6326 22.5 35.5 22.5C35.3674 22.5 35.2402 22.5527 35.1464 22.6464C35.0527 22.7402 35 22.8674 35 23V26.5Z" fill="white"/>
</g>
<defs>
<clipPath id="clip0_6_2388">
<rect width="32" height="32" fill="white" transform="translate(16 16)"/>
</clipPath>
</defs>
</svg>
