<svg width="166" height="48" viewBox="0 0 166 48" fill="none" xmlns="http://www.w3.org/2000/svg">
<circle cx="22" cy="24.2499" r="20.5" stroke="#98A2B3" stroke-width="3"/>
<path d="M30.1315 32.3817C25.9921 36.5211 21.3026 39.2234 17.1262 40.2973C12.9122 41.3809 9.51553 40.7571 7.50412 38.7457C5.49271 36.7343 4.86892 33.3377 5.95255 29.1236C7.02647 24.9472 9.72868 20.2577 13.8681 16.1183C18.0075 11.9789 22.697 9.27668 26.8734 8.20276C31.0875 7.11913 34.4841 7.74292 36.4955 9.75433C38.5069 11.7657 39.1307 15.1624 38.0471 19.3765C36.9731 23.5528 34.2709 28.2424 30.1315 32.3817Z" stroke="#98A2B3" stroke-width="3"/>
<path d="M30.1314 16.1182C34.2708 20.2576 36.973 24.9471 38.047 29.1235C39.1306 33.3376 38.5068 36.7342 36.4954 38.7456C34.484 40.757 31.0874 41.3808 26.8733 40.2972C22.6969 39.2233 18.0074 36.5211 13.868 32.3817C9.72859 28.2423 7.02638 23.5528 5.95245 19.3764C4.86883 15.1623 5.49262 11.7657 7.50402 9.75426C9.51543 7.74285 12.9121 7.11906 17.1262 8.20269C21.3025 9.27661 25.992 11.9788 30.1314 16.1182Z" stroke="#98A2B3" stroke-width="3"/>
<path d="M62.8502 34.24C67.5602 34.24 70.7402 31.78 70.7402 27.85C70.7402 19.54 59.7002 23.08 59.7002 18.7C59.7002 17.47 60.8102 16.63 62.5802 16.63C64.5902 16.63 65.8502 17.71 66.0002 19.36H70.2902C70.1702 15.37 67.1102 12.76 62.5802 12.76C58.3202 12.76 55.3202 15.22 55.3202 18.7C55.3202 26.95 66.2102 23.8 66.2102 27.91C66.2102 29.5 64.8602 30.34 62.8502 30.34C60.6302 30.34 59.2202 28.99 59.0402 26.86H54.7202C54.9002 31.33 58.0802 34.24 62.8502 34.24Z" fill="#98A2B3"/>
<path d="M71.7605 40.12H75.9305V32.65C76.7404 33.67 78.2104 34.24 79.9205 34.24C84.2705 34.24 87.2104 31.15 87.2104 26.44C87.2104 21.73 84.5105 18.64 80.2805 18.64C78.3305 18.64 76.8305 19.36 75.9305 20.53V18.88H71.7605V40.12ZM79.4104 30.64C77.1604 30.64 75.6905 28.96 75.6905 26.44C75.6905 23.89 77.1604 22.21 79.4104 22.21C81.6005 22.21 83.1005 23.89 83.1005 26.44C83.1005 28.96 81.6005 30.64 79.4104 30.64Z" fill="#98A2B3"/>
<path d="M88.2194 34H92.3894V25.72C92.3894 23.77 93.6794 22.36 95.5094 22.36C97.2494 22.36 98.4494 23.68 98.4494 25.51V34H102.619V24.58C102.619 21.1 100.399 18.64 97.0094 18.64C94.9094 18.64 93.2594 19.51 92.3894 20.98V12.31H88.2194V34Z" fill="#98A2B3"/>
<path d="M114.285 28.87C113.955 30.16 112.845 30.82 111.165 30.82C109.065 30.82 107.715 29.5 107.415 27.37H118.275C118.305 27.04 118.335 26.59 118.335 26.02C118.335 22.57 116.205 18.64 110.865 18.64C105.735 18.64 103.395 22.57 103.395 26.41C103.395 30.22 106.035 34.24 111.165 34.24C114.885 34.24 117.765 32.14 118.365 28.87H114.285ZM110.865 21.7C112.875 21.7 114.045 23.05 114.165 24.73H107.475C107.835 22.63 108.975 21.7 110.865 21.7Z" fill="#98A2B3"/>
<path d="M129.271 22.36V18.88H127.12C125.29 18.88 124.15 19.51 123.34 21.4V18.88H119.14V34H123.34V26.65C123.34 24.07 124.27 22.36 126.34 22.36H129.271Z" fill="#98A2B3"/>
<path d="M143.671 18.88H139.471V27.16C139.471 29.08 138.181 30.52 136.351 30.52C134.641 30.52 133.441 29.2 133.441 27.37V18.88H129.271V28.3C129.271 31.75 131.491 34.24 134.881 34.24C136.951 34.24 138.631 33.34 139.471 31.9V34H143.671V18.88Z" fill="#98A2B3"/>
<path d="M145.471 34H149.641V12.31H145.471V34Z" fill="#98A2B3"/>
<path d="M161.546 28.87C161.216 30.16 160.106 30.82 158.426 30.82C156.326 30.82 154.976 29.5 154.676 27.37H165.536C165.566 27.04 165.596 26.59 165.596 26.02C165.596 22.57 163.466 18.64 158.126 18.64C152.996 18.64 150.656 22.57 150.656 26.41C150.656 30.22 153.296 34.24 158.426 34.24C162.146 34.24 165.026 32.14 165.626 28.87H161.546ZM158.126 21.7C160.136 21.7 161.306 23.05 161.426 24.73H154.736C155.096 22.63 156.236 21.7 158.126 21.7Z" fill="#98A2B3"/>
</svg>
