<svg width="152" height="31" viewBox="0 0 152 31" fill="none" xmlns="http://www.w3.org/2000/svg">
<path d="M26.8359 9.76562H32.3242L25.3125 30H20.3906L16.2305 17.2461L12.0703 30H7.12891L0.15625 9.76562H5.64453L9.84375 23.3203L14.0039 9.76562H18.4375L22.6367 23.3203L26.8359 9.76562ZM44.1211 30.5664L44.0625 30.5859C40.8008 30.5859 38.1641 29.6094 36.1328 27.6562C34.1016 25.7031 33.0859 23.125 33.0859 19.9219C33.0859 16.8555 34.0625 14.2969 36.0156 12.2656C37.9688 10.2344 40.5273 9.21875 43.6719 9.21875C46.8945 9.21875 49.4531 10.1953 51.3281 12.168C53.2031 14.1406 54.1406 16.6211 54.1406 19.6094C54.1406 20.4297 54.1016 21.0547 54.0234 21.4844H38.3008C38.4766 22.8711 39.0625 23.9844 40.0586 24.8242C41.0547 25.6641 42.4219 26.0742 44.1797 26.0742C46.5234 26.0742 48.1641 25.1758 49.1016 23.3984L53.8672 24.8047C53.2031 26.3281 52.0312 27.6758 50.332 28.8281C48.6328 29.9805 46.5625 30.5664 44.1211 30.5664ZM38.2617 18.1836H48.9648C48.8281 16.9141 48.2812 15.8398 47.3242 14.9805C46.3672 14.1211 45.1367 13.6914 43.6133 13.6914C42.1484 13.6914 40.9375 14.1406 39.9609 15.0195C38.9844 15.8984 38.418 16.9531 38.2617 18.1836ZM82.3438 9.19922L82.3242 9.17969C84.7656 9.17969 86.7188 9.94141 88.1641 11.4844C89.6094 13.0273 90.332 15.1758 90.332 17.9492V29.9805H85.0391V19.0625C85.0391 15.7617 83.75 14.1016 81.1719 14.1016C79.7852 14.1016 78.7305 14.5898 77.9883 15.5664C77.2461 16.543 76.875 17.9102 76.875 19.6875V30H71.543V19.082C71.543 15.7812 70.2734 14.1211 67.7539 14.1211C66.3281 14.1211 65.2539 14.6289 64.5117 15.625C63.7695 16.6211 63.3984 18.0273 63.3984 19.8438V30H58.125V9.76562H63.3984V12.168C64.9219 10.1953 66.9336 9.19922 69.4141 9.19922C72.168 9.19922 74.1992 10.2148 75.5078 12.2461C77.1094 10.2148 79.3945 9.19922 82.3438 9.19922ZM98.0078 6.91406V6.95312C97.1289 6.95312 96.3867 6.66016 95.7812 6.05469C95.1758 5.44922 94.8633 4.70703 94.8633 3.82812C94.8633 2.96875 95.1758 2.24609 95.7812 1.66016C96.3867 1.07422 97.1289 0.78125 98.0078 0.78125C98.8867 0.78125 99.6289 1.07422 100.234 1.66016C100.84 2.24609 101.152 2.96875 101.152 3.82812C101.152 4.70703 100.84 5.44922 100.234 6.03516C99.6289 6.62109 98.8867 6.91406 98.0078 6.91406ZM95.2734 30.0391V9.80469H100.586V30.0391H95.2734ZM117.676 9.19922V9.21875C120.273 9.21875 122.246 10.0195 123.613 11.6211C124.98 13.2227 125.664 15.4102 125.664 18.1836V30.0195H120.371V19.1797C120.371 17.5977 120 16.3672 119.277 15.4688C118.555 14.5703 117.48 14.1211 116.055 14.1211C114.59 14.1211 113.418 14.6484 112.52 15.7227C111.621 16.7969 111.172 18.2227 111.172 20V30H105.898V9.76562H111.172V12.3242C112.793 10.2344 114.961 9.19922 117.676 9.19922ZM145.918 0.800781L151.23 0.820312V30.0195H145.898V27.5391C144.316 29.5703 142.148 30.5859 139.395 30.5859C136.562 30.5859 134.199 29.5703 132.285 27.5195C130.371 25.4688 129.414 22.9297 129.414 19.9023C129.414 16.8359 130.371 14.2773 132.285 12.2461C134.199 10.2148 136.582 9.19922 139.414 9.19922C142.188 9.19922 144.355 10.1953 145.918 12.207V0.800781ZM140.312 25.8594V25.8203C141.934 25.8203 143.301 25.2539 144.414 24.1211C145.527 22.9883 146.074 21.5625 146.074 19.8242C146.074 18.125 145.527 16.7188 144.414 15.6055C143.301 14.4922 141.934 13.9258 140.312 13.9258C138.652 13.9258 137.285 14.4727 136.211 15.5859C135.137 16.6992 134.609 18.125 134.609 19.8633C134.609 21.6211 135.137 23.0664 136.211 24.1797C137.285 25.293 138.652 25.8594 140.312 25.8594Z" fill="black"/>
</svg>
